<?xml version="1.0" encoding="utf-8"?>
<!-- Generator: Adobe Illustrator 17.1.0, SVG Export Plug-In . SVG Version: 6.00 Build 0)  -->
<!DOCTYPE svg PUBLIC "-//W3C//DTD SVG 1.1//EN" "http://www.w3.org/Graphics/SVG/1.1/DTD/svg11.dtd">
<svg version="1.1" id="Capa_1" xmlns="http://www.w3.org/2000/svg" xmlns:xlink="http://www.w3.org/1999/xlink" x="0px" y="0px"
	 viewBox="0 0 612 792" enable-background="new 0 0 612 792" xml:space="preserve">
<g id="Search">
	<path fill="#CCCCCC" d="M597,614.7l-133-133c-0.7-0.7-1.5-1.2-2.3-1.9c26.2-39.7,41.4-87.2,41.4-138.3
		c0-139-112.7-251.6-251.6-251.6S0,202.7,0,341.6c0,139,112.6,251.6,251.6,251.6c51.1,0,98.6-15.3,138.3-41.4
		c0.7,0.7,1.1,1.6,1.9,2.3l133,133c20,20,52.4,20,72.3,0C617,667,617,634.7,597,614.7z M251.6,506c-90.8,0-164.4-73.6-164.4-164.4
		s73.6-164.4,164.4-164.4S416,250.8,416,341.6S342.4,506,251.6,506z"/>
</g>
</svg>
